<?xml version="1.0" standalone="no"?>
<!DOCTYPE svg PUBLIC "-//W3C//DTD SVG 20010904//EN"
 "http://www.w3.org/TR/2001/REC-SVG-20010904/DTD/svg10.dtd">
<svg version="1.0" xmlns="http://www.w3.org/2000/svg"
 width="360.000000pt" height="360.000000pt" viewBox="0 0 360.000000 360.000000"
 preserveAspectRatio="xMidYMid meet">

<g transform="translate(0.000000,360.000000) scale(0.100000,-0.100000)"
fill="#000000" stroke="none">
<path d="M1517 3570 c-9 -42 -51 -60 -155 -65 -82 -5 -88 -7 -113 -35 -26 -31
-72 -50 -120 -50 -17 0 -37 -13 -60 -39 -28 -30 -45 -40 -83 -45 -52 -8 -96
-25 -96 -37 0 -4 -30 -37 -66 -73 -45 -45 -74 -66 -90 -66 -40 0 -93 -27 -103
-53 -5 -12 -27 -35 -50 -50 -23 -15 -41 -34 -41 -42 0 -8 -20 -28 -44 -44 -39
-27 -44 -35 -50 -80 -6 -46 -13 -56 -91 -134 -69 -69 -85 -91 -85 -115 0 -45
-16 -80 -54 -115 -26 -26 -34 -43 -40 -85 -5 -41 -14 -61 -35 -80 -40 -38 -47
-57 -50 -141 -3 -90 -21 -129 -61 -138 l-30 -5 0 -278 0 -277 30 -6 c40 -9 58
-48 61 -138 3 -82 16 -118 53 -142 19 -13 26 -28 32 -74 6 -49 13 -63 45 -95
31 -31 40 -48 45 -91 6 -49 12 -57 90 -134 77 -76 84 -86 90 -133 6 -46 11
-54 50 -81 24 -16 44 -36 44 -44 0 -8 18 -27 40 -41 22 -15 46 -39 53 -53 12
-25 40 -38 120 -55 16 -4 32 -17 39 -31 6 -13 28 -36 49 -51 21 -14 41 -34 44
-44 7 -22 39 -36 101 -46 38 -5 55 -15 83 -45 23 -26 43 -39 60 -39 48 0 94
-19 120 -50 25 -28 31 -30 113 -35 104 -5 146 -23 155 -65 l5 -30 278 0 278 0
5 30 c9 42 51 60 155 66 84 4 88 6 118 38 26 28 41 35 87 41 48 6 61 13 90 45
28 31 43 40 83 45 59 8 92 23 99 45 3 9 23 30 44 46 22 16 44 39 50 51 6 13
23 25 38 28 73 14 108 31 120 56 7 14 31 38 53 53 22 14 40 33 40 41 0 8 20
28 44 44 39 27 44 35 50 82 6 42 13 57 43 83 20 17 41 37 47 44 6 7 27 30 47
50 28 29 37 48 43 90 5 42 14 59 45 90 31 30 39 47 45 91 5 40 14 60 35 79 40
38 47 57 50 141 3 90 21 129 61 138 l30 5 0 278 0 278 -30 5 c-40 9 -58 48
-61 138 -3 82 -16 118 -53 142 -19 13 -26 28 -32 74 -6 49 -13 63 -45 95 -31
31 -40 48 -45 91 -7 49 -12 57 -90 135 -77 77 -84 88 -90 133 -6 45 -11 53
-50 80 -24 16 -44 36 -44 44 0 8 -18 27 -40 41 -22 15 -46 39 -53 53 -12 25
-47 42 -120 56 -16 3 -32 16 -39 30 -6 13 -28 36 -49 51 -21 14 -41 34 -44 44
-6 20 -46 40 -81 40 -38 0 -91 26 -98 47 -8 25 -39 40 -100 48 -38 5 -55 14
-80 41 -30 32 -34 34 -119 38 -106 6 -139 20 -152 64 l-9 32 -277 0 -276 0 -6
-30z m496 -351 c12 -7 37 -25 55 -40 29 -26 40 -29 102 -29 81 0 106 -8 151
-49 32 -30 83 -51 121 -51 9 0 37 -18 62 -39 25 -22 55 -42 66 -46 11 -4 27
-20 36 -36 8 -17 31 -40 50 -51 20 -12 40 -32 45 -44 4 -13 23 -33 40 -43 17
-10 39 -33 50 -50 10 -16 32 -37 49 -46 17 -9 35 -27 40 -41 5 -13 25 -34 44
-45 21 -12 40 -35 50 -59 8 -21 25 -44 37 -50 24 -14 49 -67 49 -108 0 -19 11
-40 34 -63 45 -45 56 -76 56 -161 0 -69 1 -72 41 -115 l40 -44 -3 -213 -3
-213 -37 -42 c-36 -39 -38 -44 -38 -110 0 -85 -11 -117 -55 -158 -25 -23 -35
-41 -35 -63 0 -42 -24 -96 -48 -109 -11 -6 -27 -28 -35 -49 -10 -24 -30 -48
-56 -65 -23 -15 -41 -34 -41 -42 0 -8 -18 -26 -40 -40 -23 -14 -45 -36 -50
-49 -4 -13 -25 -33 -44 -44 -20 -12 -40 -32 -45 -45 -5 -13 -25 -33 -45 -45
-19 -11 -42 -34 -50 -51 -9 -16 -25 -32 -36 -36 -11 -4 -40 -24 -64 -44 -33
-29 -56 -40 -93 -45 -38 -5 -58 -14 -84 -41 -45 -45 -76 -55 -162 -55 -69 0
-72 -1 -110 -38 l-38 -37 -219 0 -219 0 -37 37 c-35 37 -38 38 -109 38 -88 0
-118 10 -161 54 -26 27 -44 36 -85 41 -38 5 -60 15 -83 37 -17 17 -48 39 -69
49 -21 11 -42 31 -47 44 -5 14 -24 34 -41 44 -17 10 -39 33 -50 50 -10 16 -32
37 -49 46 -17 9 -35 27 -40 41 -5 13 -26 34 -46 46 -19 11 -40 32 -45 45 -5
13 -25 33 -44 45 -23 13 -42 35 -52 60 -8 21 -24 43 -35 49 -24 13 -48 67 -48
108 0 21 -10 40 -34 64 -46 43 -56 73 -56 160 0 69 -1 72 -38 110 l-37 38 -3
214 -3 215 40 42 c40 41 41 43 41 114 0 87 10 118 56 163 23 23 34 44 34 63 0
39 24 92 49 110 11 8 27 31 35 50 9 20 30 44 50 56 19 11 40 33 48 48 7 16 26
35 41 42 16 8 37 27 47 44 10 16 32 39 49 49 17 10 36 30 40 43 5 12 25 32 44
44 19 11 41 33 49 48 7 15 31 37 53 49 22 11 51 32 65 46 18 18 42 28 77 33
40 5 58 14 84 41 40 41 81 55 168 55 60 0 66 2 107 40 l44 40 200 0 c132 0
209 -4 223 -11z"/>
<path d="M1567 2802 c-6 -2 -28 -22 -47 -44 -35 -39 -36 -40 -127 -47 -95 -8
-119 -18 -134 -58 -4 -12 -25 -31 -46 -42 -56 -28 -200 -170 -218 -213 -8 -21
-27 -44 -43 -52 -45 -23 -52 -38 -61 -137 -9 -93 -9 -93 -50 -128 l-41 -36 0
-244 0 -243 41 -38 c41 -37 42 -39 50 -129 5 -51 11 -96 15 -102 3 -5 23 -21
45 -35 25 -15 39 -32 39 -45 0 -26 167 -192 221 -219 21 -11 40 -28 44 -39 13
-41 42 -54 137 -62 l92 -7 36 -42 35 -41 225 0 c124 0 233 0 244 0 10 1 35 19
56 42 37 40 38 41 128 48 94 8 118 18 133 58 4 12 26 31 48 43 51 25 221 196
221 221 0 11 17 29 39 43 22 14 42 30 45 35 4 6 10 51 15 102 8 90 9 92 50
129 l41 38 0 242 0 242 -40 37 c-40 36 -41 39 -51 131 -11 96 -23 124 -60 135
-11 4 -28 24 -40 46 -26 52 -167 192 -219 219 -22 11 -45 31 -49 43 -16 40
-39 50 -132 57 -90 7 -91 7 -129 48 -21 23 -44 42 -51 42 -89 3 -452 4 -462 2z
m399 -237 c24 -25 53 -45 66 -46 66 -3 85 -10 114 -41 16 -18 43 -40 58 -48
15 -8 35 -28 43 -45 9 -16 33 -46 54 -66 l39 -36 0 -167 0 -168 -44 -42 c-24
-24 -47 -52 -50 -64 -4 -11 -23 -30 -42 -41 -19 -11 -39 -32 -44 -45 -5 -14
-26 -34 -47 -45 -64 -33 -133 -107 -133 -142 0 -51 -25 -95 -60 -108 -47 -16
-203 -14 -245 3 -40 17 -55 58 -55 153 0 62 0 63 40 88 23 14 45 37 50 50 5
13 22 31 37 39 15 8 47 31 69 53 23 21 69 64 103 95 l61 57 0 112 0 112 -62
58 c-98 91 -144 91 -238 -2 l-60 -59 0 -114 c0 -63 -4 -126 -10 -140 -10 -27
-119 -139 -151 -156 -44 -24 -109 -2 -109 37 0 8 -19 33 -42 54 l-43 39 -3
170 -3 171 45 45 c25 25 46 51 46 59 0 8 17 26 39 39 21 14 48 36 59 51 22 27
67 45 115 45 20 0 40 13 71 45 l44 45 122 0 122 0 44 -45z m29 -1289 c50 -48
67 -74 72 -100 5 -33 1 -39 -51 -89 -31 -30 -56 -59 -56 -65 0 -20 -64 -32
-166 -32 -98 0 -154 12 -154 33 0 5 -25 33 -55 62 -78 75 -76 95 15 185 l69
70 131 0 130 0 65 -64z"/>
</g>
</svg>
